inDegrees=no
num_controls=7
num_derivatives=13
num_iterations=84
num_multipliers=7
num_parameters=0
num_slacks=7
num_states=26
objective=0.333928
objective_accelerations=0.037047
objective_balance=0.001329
objective_effort=0.027199
objective_height=0.266882
objective_ligament=0.001472
solver_duration=885.485076
status=Solve_Succeeded
success=true
DataType=double
version=3
OpenSimVersion=4.5
endheader
time	/jointset/ground_pelvis/pelvis_tilt/value	/jointset/ground_pelvis/pelvis_tx/value	/jointset/ground_pelvis/pelvis_ty/value	/jointset/hip_r/hip_flexion_r/value	/jointset/hip_r/hip_adduction_r/value	/jointset/hip_r/hip_rotation_r/value	/jointset/back/lumbar_extension/value	/jointset/patellofemoral_r/patellar_flexion_r/value	/jointset/knee_r/knee_flexion_r/value	/jointset/knee_r/knee_adduction_r/value	/jointset/knee_r/knee_rotation_r/value	/jointset/ankle_r/ankle_angle_r/value	/jointset/subtalar_r/subtalar_angle_r/value	/jointset/ground_pelvis/pelvis_tilt/speed	/jointset/ground_pelvis/pelvis_tx/speed	/jointset/ground_pelvis/pelvis_ty/speed	/jointset/hip_r/hip_flexion_r/speed	/jointset/hip_r/hip_adduction_r/speed	/jointset/hip_r/hip_rotation_r/speed	/jointset/back/lumbar_extension/speed	/jointset/patellofemoral_r/patellar_flexion_r/speed	/jointset/knee_r/knee_flexion_r/speed	/jointset/knee_r/knee_adduction_r/speed	/jointset/knee_r/knee_rotation_r/speed	/jointset/ankle_r/ankle_angle_r/speed	/jointset/subtalar_r/subtalar_angle_r/speed	/forceset/tau_hip_flexion_r	/forceset/tau_hip_adduction_r	/forceset/tau_hip_rotation_r	/forceset/tau_knee_flexion_r	/forceset/tau_ankle_angle_r	/forceset/tau_subtalar_angle_r	/forceset/tau_lumbar_extension	lambda_cid13_p0	lambda_cid14_p0	lambda_cid14_p1	lambda_cid14_p2	lambda_cid14_p3	lambda_cid14_p4	lambda_cid14_p5	/jointset/ground_pelvis/pelvis_tilt/accel	/jointset/ground_pelvis/pelvis_tx/accel	/jointset/ground_pelvis/pelvis_ty/accel	/jointset/hip_r/hip_flexion_r/accel	/jointset/hip_r/hip_adduction_r/accel	/jointset/hip_r/hip_rotation_r/accel	/jointset/back/lumbar_extension/accel	/jointset/patellofemoral_r/patellar_flexion_r/accel	/jointset/knee_r/knee_flexion_r/accel	/jointset/knee_r/knee_adduction_r/accel	/jointset/knee_r/knee_rotation_r/accel	/jointset/ankle_r/ankle_angle_r/accel	/jointset/subtalar_r/subtalar_angle_r/accel	gamma_cid13_p0	gamma_cid14_p0	gamma_cid14_p1	gamma_cid14_p2	gamma_cid14_p3	gamma_cid14_p4	gamma_cid14_p5
1.5	-0.1100172318881042	0.0382465295222567	0.8159513899319107	0.8308301720130412	-0.2263031866824907	-0.1225795463484645	-0.6254127593735124	0.9376060047684048	0.9376060047684042	-0.03706135380756096	0.174474976171576	0.3070750013431076	0.1383541365336113	0.5233881794419034	0.2240733101271347	0.5117945792788837	-2.075388350258401	0.0008845825562495576	-0.1744662811089982	0.8013219135528354	-1.958331386268285	-1.958331386268285	0.4925561625117779	0.0001373930764222618	-0.5246058900604061	-0.2079574619072863	-0.1726560474921608	0.01982774953718568	0.01745554853217721	-0.2836681674449421	-0.008416440415567912	-0.007005345512755169	0.2192845195515046	-9.279271893017041	-44.96656918118603	-10.2691027996884	1.320491823472394	-1.053517082776709	-628.1112921304187	52.33132899950731	0.1466041078693441	0.5473366228608179	-0.5331026664241061	-0.9826077689649798	-0.2580530599034682	-0.6823372302641934	1.78323064558184	-1.343538413670038	-1.343538413670038	0.4382646302754032	-0.02613905624563449	-0.6798894931442588	-0.446444565312532	1.707015484340752e-07	1.425341950142685e-07	-1.0445784260429e-06	1.503165790004122e-06	1.661983050593947e-08	3.348570659564563e-07	-8.088785242860912e-07
1.51	-0.1047763754544914	0.04051438299318307	0.8210416547087755	0.8100291784385296	-0.2263082167481619	-0.1243580133461021	-0.6173120142763299	0.9179580305383711	0.9179580305383712	-0.032112136086902	0.1744762783172937	0.3017954671092494	0.1362511199269787	0.5247040337649345	0.229468185287647	0.5061491600514293	-2.084533706420859	-0.001901014398182982	-0.1812571834339796	0.8187090089408715	-1.970992251818408	-1.970992251818408	0.4972420230802302	0.0001398255931455035	-0.5312171609928367	-0.2126082204661019	-0.1649600424548827	0.01786725255520876	0.01760459346989806	-0.2802287322779857	-0.006255586017027335	-0.007712497340125584	0.2123308001534561	-10.3092745875085	-43.98346102111903	-10.24102656197043	1.129765248568769	-1.178575786207547	-623.1276520731657	52.33415835434025	0.1122258390180897	0.5311848642280866	-0.5965777506930654	-0.8389844548681636	-0.2902249795063306	-0.681713273947314	1.698734443993483	-1.186710754007108	-1.186710754007055	0.4768285194909391	0.01620603429636604	-0.6391417077712124	-0.468719602509267	1.613824194473558e-07	1.374257547782473e-07	-9.668665961323171e-07	1.46729351218766e-06	1.131735577025275e-08	3.323332181972138e-07	-7.858704402632642e-07
1.52	-0.09952473052874865	0.04283530959603087	0.8260722020534085	0.7891450343193972	-0.226341385176636	-0.1262052386750559	-0.6090409411335511	0.8981915776271715	0.8981915776271722	-0.02711744341068635	0.1744781591139116	0.2964523410031712	0.1341027301144893	0.5255458778678896	0.2346879365114256	0.4998510928324968	-2.092018459182596	-0.004743090004342953	-0.1882179473722448	0.8353875226720674	-1.982027122501474	-1.982027122501473	0.5016511536231141	0.0002531232564712403	-0.5373242645044182	-0.2170321030786453	-0.1572640374176045	0.01590675557323184	0.01775363840761889	-0.27678929711103	-0.004094731618486758	-0.008419649167495998	0.2053770807554088	-11.34180257357251	-43.0006351494951	-10.21146983945391	0.9370550359925945	-1.314515189771978	-618.1431597393852	52.39833990033521	0.05180206385418018	0.5123118355140962	-0.6636322647196868	-0.6504870888209291	-0.2693487902489547	-0.7163095529209365	1.64151431421379	-1.018339440258271	-1.018339440258335	0.3829186251616922	-0.003966026925135535	-0.5790560089744763	-0.4010693760581037	1.621089706477378e-07	1.309248266246042e-07	-1.043703910426577e-06	1.372344315435963e-06	2.468015768445788e-08	3.254192443189366e-07	-8.381378397474492e-07
1.53	-0.09426706057377808	0.04520750980878141	0.8310365700602572	0.7681943656461612	-0.2264033949333553	-0.1281222642046845	-0.6006067199697991	0.87832305345786	0.8783230534578603	-0.0220792321537294	0.1744815363904859	0.2910506789624044	0.1319110082205297	0.5259065427950269	0.2397175872214288	0.4929197516148389	-2.097833544834431	-0.007687951159116481	-0.195075058111467	0.8513279927106813	-1.991383092708732	-1.991383092708732	0.5060831816889561	0.0003730996969904977	-0.5429237007269911	-0.2213080705781033	-0.1495471680426121	0.01367607658858402	0.01795831057272167	-0.2736237588691348	-0.001784234499438571	-0.009186064307497115	0.1984118034822561	-12.37400749380634	-41.99383801296135	-10.2098790733612	0.7561430400853648	-1.446682392883503	-613.4316323515583	52.48715703006453	0.0159730136292032	0.4931289952937318	-0.7232370602168359	-0.5047457151850059	-0.3113559104780934	-0.6533360754940311	1.551005743535295	-0.8500689355694406	-0.8500689355694311	0.4869749536188386	0.01277542573399786	-0.5376678454900141	-0.4403184234446281	1.735090570469149e-07	1.229443800584876e-07	-1.284749690438482e-06	1.214625892315578e-06	5.787481603917289e-08	3.138407614391852e-07	-9.703854404578336e-07
1.54	-0.08900822910823901	0.04762897398994206	0.8359285542529439	0.7471940008340429	-0.2264957135280997	-0.1301044456899196	-0.5920169556266908	0.8583698009615537	0.8583698009615538	-0.01699397460484931	0.1744846726207041	0.2855955664760936	0.1296766350542646	0.525778179981592	0.244540730193447	0.4853743300000614	-2.101957686959075	-0.0108048576093517	-0.2012491384935421	0.8664961585432995	-1.998972787900384	-1.998972787900383	0.5110604120077393	0.0002049139852459893	-0.5480143536132176	-0.2255623575397608	-0.1418302986676197	0.01144539760393624	0.01816298273782432	-0.2704582206272395	0.0005262626196096249	-0.009952479447498167	0.1914465262091035	-13.40219812444822	-40.98789430539674	-10.20767381865351	0.5742592311809775	-1.58457490343935	-608.7258481283772	52.63095466349537	-0.04600348426026515	0.4710102879171185	-0.7864483441436197	-0.3122983833827651	-0.3037578493412925	-0.5797034814915027	1.48705347301467	-0.6650844371369466	-0.6650844371369475	0.4919590757505451	-0.06159845737843066	-0.4772993417053121	-0.3967332684980145	1.766561605820336e-07	1.117017591656537e-07	-1.472285802239732e-06	1.039616827256071e-06	8.558608603462335e-08	3.068234738022254e-07	-1.075717170194445e-06
1.55	-0.0837531691301517	0.05009752822114111	0.8407420778274491	0.7261610533767191	-0.2266194781993163	-0.1321476770362328	-0.5832794791631498	0.8383493132952242	0.8383493132952244	-0.01185930877407269	0.1744856055401107	0.2800922331888325	0.1274008300387407	0.5251493329275227	0.249124253328259	0.4772342421916387	-2.104326842787259	-0.01392773952806863	-0.2074902709985042	0.8808563878527647	-2.004833503987386	-2.004833503987385	0.5157261185803038	1.323860584740349e-05	-0.5525540439919178	-0.2295136471236477	-0.1342466490552067	0.009336929616916567	0.01830797661292846	-0.2672008920471093	0.002481430587185948	-0.01082763635968352	0.1845563332042161	-14.42201828400763	-40.12650377110485	-10.28409925854539	0.4118723537737244	-1.559796623518931	-604.2958945526251	52.659752692829	-0.0839915413587356	0.4451676915048398	-0.842149589078357	-0.1534703740521348	-0.3135175319300409	-0.6600673285113651	1.389095713096429	-0.5029123397774882	-0.5029123397774423	0.4316629137943298	0.006883840230249634	-0.427503747973507	-0.3817527283599264	1.702943925563898e-07	9.670054611377597e-08	-1.598169470233057e-06	8.446859356145318e-07	1.069795390074433e-07	3.050614763363077e-07	-1.150037135548233e-06
1.56	-0.07850693086768078	0.05261054655673662	0.845471328405893	0.7051135651228105	-0.2267738645234787	-0.1342560695462981	-0.5744026827958776	0.8182789490389656	0.8182789490389657	-0.006682428584413421	0.1744855888894135	0.2745464630253803	0.1250880269423727	0.5240138368583142	0.2534335510727352	0.4685197307877451	-2.104865846276082	-0.01692918819851176	-0.2142813712439884	0.89436013928959	-2.008948105886212	-2.008948105886212	0.5195032837842654	1.499996448169851e-05	-0.5565017288514632	-0.2329619737085704	-0.1266629994427937	0.007228461629896936	0.01845297048803255	-0.2639435634669801	0.004436598554762276	-0.01170279327186881	0.1776661401993287	-15.43058097993504	-39.26634377441071	-10.36065962634602	0.2494156417584173	-1.539468363654195	-599.8806991166315	52.73585575563593	-0.1473332872881246	0.4161652098499625	-0.9013330632378215	0.05373208448907685	-0.2794711996865308	-0.6896970295959275	1.315757898486714	-0.3158615995016048	-0.3158615995016475	0.3142508020299367	-0.02291110977185436	-0.3588982378743693	-0.2961406687051772	1.792285291631615e-07	8.608927904758723e-08	-1.868069044869491e-06	6.107657110349363e-07	1.44262950518481e-07	2.876244669093794e-07	-1.263396120812257e-06
1.57	-0.07327460709745533	0.05516529676786703	0.8501106833390156	0.6840697123344015	-0.2269578547640485	-0.1364346224702154	-0.5653953902954236	0.7981762030584589	0.7981762030584593	-0.001471290630262141	0.1744867059991561	0.2689641880155824	0.122742913428002	0.5223593351321116	0.2574710680661029	0.4592659990195667	-2.103603102477314	-0.01987846844935382	-0.2213294614361758	0.9069346244049079	-2.011292624028325	-2.011292624028324	0.5227702889908802	0.000154730875707558	-0.5598558478000483	-0.2360293293681988	-0.1186952504933971	0.004519062035261216	0.01865803009784064	-0.2617843297198513	0.007639620916676098	-0.01265672776240048	0.1705624050487489	-16.42568207494706	-38.03713218994394	-10.42742861675321	0.1089438513024057	-1.821386695839581	-595.9010940526314	53.00213259202924	-0.1882377794683905	0.3907783431877497	-0.9501359016027642	0.2077953120558196	-0.3042864056635867	-0.6971879122166263	1.203733358610456	-0.1475216805236045	-0.1475216805235497	0.3394574260022681	0.02433985552584511	-0.3089544628301962	-0.3077106488827829	2.072825465604524e-07	8.096544446350962e-08	-2.31798850280981e-06	3.281088202827711e-07	2.014088102022907e-07	2.50593692531188e-07	-1.425553880964076e-06
1.58	-0.06806157417732832	0.0577590688287526	0.8546549524208575	0.6630475369408771	-0.2271716638007029	-0.1386806208756919	-0.5562672650357052	0.77805925694474	0.7780592569447401	0.003773823785160361	0.1744876053508021	0.2633513146684024	0.1203679908301768	0.5201556668386256	0.2612379210237717	0.4495025605315939	-2.100530367299142	-0.02289294741541763	-0.2277704675558255	0.9185266911424708	-2.011788132528736	-2.011788132528735	0.5262985760384885	-2.855165481804692e-05	-0.5626213963278628	-0.2389237903994717	-0.1107275015440004	0.001809662440625553	0.01886308970764819	-0.2596250959727225	0.01084264327858995	-0.01361066225293201	0.163458669898169	-17.40557137897737	-36.8087286916602	-10.49523251742817	-0.03034316678024623	-2.101425981874086	-591.9262763052351	53.30040922931322	-0.2571666007448508	0.362032402710169	-1.003274407196723	0.4157303603698245	-0.2925109427308827	-0.5682802150883912	1.119274222935665	0.05394032883882616	0.05394032883882616	0.3665071702279348	-0.08751379812144944	-0.2411841537246824	-0.2615617430340752	2.147198995976624e-07	3.287574754520585e-08	-2.954148920693845e-06	-6.071191546277504e-07	3.120683516078695e-07	1.075647026305456e-07	-1.481703959451935e-06
1.59	-0.06287340527525166	0.0603889756330251	0.859099085194541	0.6420657581989837	-0.2274143521629124	-0.1409943791594752	-0.5470280866511928	0.7579464463856649	0.7579464463856656	0.009048305656266594	0.1744877883756106	0.2577141629250984	0.1179675950060867	0.5173936546186805	0.2646808211622112	0.4392458303253909	-2.095494760938065	-0.02562220925922971	-0.2349736691355905	0.9291342056391779	-2.010441382818243	-2.010441382818243	0.5285242350110478	6.666312865059964e-05	-0.5647042392644478	-0.2410792229938772	-0.1032882107977216	-0.000318203876170114	0.01881000572413899	-0.2566491205108776	0.01265819670572112	-0.01454379504378743	0.1567096705917227	-18.36918642047581	-36.05171572084319	-10.62271819421522	-0.1759031195190277	-1.962934288576166	-588.2824686558997	53.39433549591352	-0.2983858727122114	0.3261469359745431	-1.048666967307896	0.5970552352092088	-0.2606802810086035	-0.7953623510534966	1.005273044914648	0.2248953753502866	0.2248953753502096	0.1388132937441676	0.05752707425221305	-0.1759357789898978	-0.1822213434034226	1.941774938604782e-07	-7.352476254097308e-08	-3.843064927072908e-06	-2.427979315181707e-06	4.953536039215593e-07	-1.793190083362724e-07	-1.393986469967284e-06
